<svg width="52" height="25" viewBox="0 0 52 25" fill="none" xmlns="http://www.w3.org/2000/svg">
<path d="M-1.27387e-06 7.28572L1.71428 7.28572L1.71428 9.00001L-1.57361e-06 9.00001L-1.27387e-06 7.28572ZM1.71428 7.28572L3.42857 7.28572L3.42857 9.00001L1.71428 9.00001L1.71428 7.28572ZM1.71428 9.00001L3.42857 9.00001L3.42857 10.7143L1.71428 10.7143L1.71428 9.00001ZM1.71428 10.7143L3.42857 10.7143L3.42857 12.4286L1.71428 12.4286L1.71428 10.7143ZM1.71428 12.4286L3.42857 12.4286L3.42857 14.1429L1.71428 14.1429L1.71428 12.4286ZM-1.87335e-06 10.7143L1.71428 10.7143L1.71428 12.4286L-2.17308e-06 12.4286L-1.87335e-06 10.7143ZM-1.57361e-06 9.00001L1.71428 9.00001L1.71428 10.7143L-1.87335e-06 10.7143L-1.57361e-06 9.00001ZM-2.17308e-06 12.4286L1.71428 12.4286L1.71428 14.1429L-2.47282e-06 14.1429L-2.17308e-06 12.4286ZM-2.47282e-06 14.1429L1.71428 14.1429L1.71428 15.8572L-2.77255e-06 15.8572L-2.47282e-06 14.1429ZM1.71428 14.1429L3.42857 14.1429L3.42857 15.8572L1.71428 15.8572L1.71428 14.1429ZM1.71428 15.8572L3.42857 15.8572L3.42857 17.5714L1.71428 17.5714L1.71428 15.8572ZM3.42857 15.8572L5.14285 15.8572L5.14285 17.5714L3.42857 17.5714L3.42857 15.8572ZM3.42857 17.5714L5.14285 17.5714L5.14285 19.2857L3.42857 19.2857L3.42857 17.5714ZM5.14285 17.5714L6.85714 17.5714L6.85714 19.2857L5.14285 19.2857L5.14285 17.5714ZM6.85714 17.5714L8.57143 17.5714L8.57142 19.2857L6.85714 19.2857L6.85714 17.5714ZM6.85714 15.8572L8.57143 15.8572L8.57143 17.5714L6.85714 17.5714L6.85714 15.8572ZM6.85714 14.1429L8.57143 14.1429L8.57143 15.8572L6.85714 15.8572L6.85714 14.1429ZM8.57143 14.1429L10.2857 14.1429L10.2857 15.8572L8.57143 15.8572L8.57143 14.1429ZM8.57143 15.8572L10.2857 15.8572L10.2857 17.5714L8.57143 17.5714L8.57143 15.8572ZM8.57143 12.4286L10.2857 12.4286L10.2857 14.1429L8.57143 14.1429L8.57143 12.4286ZM6.85714 12.4286L8.57143 12.4286L8.57143 14.1429L6.85714 14.1429L6.85714 12.4286ZM6.85714 7.28572L8.57143 7.28573L8.57143 9.00001L6.85714 9.00001L6.85714 7.28572ZM8.57143 7.28573L10.2857 7.28573L10.2857 9.00001L8.57143 9.00001L8.57143 7.28573ZM8.57143 9.00001L10.2857 9.00001L10.2857 10.7143L8.57143 10.7143L8.57143 9.00001ZM8.57143 10.7143L10.2857 10.7143L10.2857 12.4286L8.57143 12.4286L8.57143 10.7143ZM6.85714 9.00001L8.57143 9.00001L8.57143 10.7143L6.85714 10.7143L6.85714 9.00001ZM6.85714 10.7143L8.57143 10.7143L8.57143 12.4286L6.85714 12.4286L6.85714 10.7143ZM5.14285 19.2857L6.85714 19.2857L6.85714 21L5.14285 21L5.14285 19.2857ZM3.42857 19.2857L5.14285 19.2857L5.14285 21L3.42857 21L3.42857 19.2857ZM3.42857 21L5.14285 21L5.14285 22.7143L3.42857 22.7143L3.42857 21ZM1.71428 21L3.42857 21L3.42857 22.7143L1.71428 22.7143L1.71428 21ZM1.71428 19.2857L3.42857 19.2857L3.42857 21L1.71428 21L1.71428 19.2857ZM1.71428 22.7143L3.42857 22.7143L3.42857 24.4286L1.71428 24.4286L1.71428 22.7143ZM-3.97149e-06 22.7143L1.71428 22.7143L1.71428 24.4286L-4.27123e-06 24.4286L-3.97149e-06 22.7143ZM-3.67176e-06 21L1.71428 21L1.71428 22.7143L-3.97149e-06 22.7143L-3.67176e-06 21ZM5.14285 15.8572L6.85714 15.8572L6.85714 17.5714L5.14285 17.5714L5.14285 15.8572ZM3.42857 14.1429L5.14285 14.1429L5.14285 15.8572L3.42857 15.8572L3.42857 14.1429ZM24 19.2857L22.2857 19.2857L22.2857 17.5714L24 17.5714L24 19.2857ZM24 21L22.2857 21L22.2857 19.2857L24 19.2857L24 21ZM22.2857 21L20.5714 21L20.5714 19.2857L22.2857 19.2857L22.2857 21ZM22.2857 19.2857L20.5714 19.2857L20.5714 17.5714L22.2857 17.5714L22.2857 19.2857ZM22.2857 17.5714L20.5714 17.5714L20.5714 15.8572L22.2857 15.8572L22.2857 17.5714ZM22.2857 15.8572L20.5714 15.8572L20.5714 14.1429L22.2857 14.1429L22.2857 15.8572ZM22.2857 14.1429L20.5714 14.1429L20.5714 12.4286L22.2857 12.4286L22.2857 14.1429ZM24 14.1429L22.2857 14.1429L22.2857 12.4286L24 12.4286L24 14.1429ZM24 15.8572L22.2857 15.8572L22.2857 14.1429L24 14.1429L24 15.8572ZM24 17.5714L22.2857 17.5714L22.2857 15.8572L24 15.8572L24 17.5714ZM24 12.4286L22.2857 12.4286L22.2857 10.7143L24 10.7143L24 12.4286ZM22.2857 12.4286L20.5714 12.4286L20.5714 10.7143L22.2857 10.7143L22.2857 12.4286ZM22.2857 10.7143L20.5714 10.7143L20.5714 9.00001L22.2857 9.00001L22.2857 10.7143ZM22.2857 9.00001L20.5714 9.00001L20.5714 7.28573L22.2857 7.28573L22.2857 9.00001ZM24 9.00001L22.2857 9.00001L22.2857 7.28573L24 7.28573L24 9.00001ZM24 10.7143L22.2857 10.7143L22.2857 9.00001L24 9.00001L24 10.7143ZM15.4286 9.00001L13.7143 9.00001L13.7143 7.28573L15.4286 7.28573L15.4286 9.00001ZM13.7143 9.00001L12 9.00001L12 7.28573L13.7143 7.28573L13.7143 9.00001ZM13.7143 10.7143L12 10.7143L12 9.00001L13.7143 9.00001L13.7143 10.7143ZM13.7143 12.4286L12 12.4286L12 10.7143L13.7143 10.7143L13.7143 12.4286ZM13.7143 14.1429L12 14.1429L12 12.4286L13.7143 12.4286L13.7143 14.1429ZM13.7143 15.8572L12 15.8572L12 14.1429L13.7143 14.1429L13.7143 15.8572ZM13.7143 17.5714L12 17.5714L12 15.8572L13.7143 15.8572L13.7143 17.5714ZM13.7143 19.2857L12 19.2857L12 17.5714L13.7143 17.5714L13.7143 19.2857ZM15.4286 15.8572L13.7143 15.8572L13.7143 14.1429L15.4286 14.1429L15.4286 15.8572ZM15.4286 14.1429L13.7143 14.1429L13.7143 12.4286L15.4286 12.4286L15.4286 14.1429ZM15.4286 12.4286L13.7143 12.4286L13.7143 10.7143L15.4286 10.7143L15.4286 12.4286ZM15.4286 10.7143L13.7143 10.7143L13.7143 9.00001L15.4286 9.00001L15.4286 10.7143ZM15.4286 17.5714L13.7143 17.5714L13.7143 15.8572L15.4286 15.8572L15.4286 17.5714ZM20.5714 19.2857L18.8571 19.2857L18.8571 17.5714L20.5714 17.5714L20.5714 19.2857ZM18.8571 19.2857L17.1429 19.2857L17.1429 17.5714L18.8571 17.5714L18.8571 19.2857ZM17.1429 19.2857L15.4286 19.2857L15.4286 17.5714L17.1429 17.5714L17.1429 19.2857ZM17.1429 21L15.4286 21L15.4286 19.2857L17.1429 19.2857L17.1429 21ZM15.4286 21L13.7143 21L13.7143 19.2857L15.4286 19.2857L15.4286 21ZM15.4286 19.2857L13.7143 19.2857L13.7143 17.5714L15.4286 17.5714L15.4286 19.2857ZM18.8571 21L17.1429 21L17.1429 19.2857L18.8571 19.2857L18.8571 21ZM25.7187 3.85716L27.433 3.85716L27.433 5.57144L25.7187 5.57144L25.7187 3.85716ZM27.433 3.85716L29.1473 3.85716L29.1473 5.57144L27.433 5.57144L27.433 3.85716ZM27.433 5.57144L29.1473 5.57144L29.1473 7.28573L27.433 7.28573L27.433 5.57144ZM27.433 7.28573L29.1473 7.28573L29.1473 9.00001L27.433 9.00001L27.433 7.28573ZM27.433 9.00001L29.1473 9.00001L29.1473 10.7143L27.433 10.7143L27.433 9.00001ZM25.7187 9.00001L27.433 9.00001L27.433 10.7143L25.7187 10.7143L25.7187 9.00001ZM25.7187 7.28573L27.433 7.28573L27.433 9.00001L25.7187 9.00001L25.7187 7.28573ZM25.7187 5.57144L27.433 5.57144L27.433 7.28573L25.7187 7.28573L25.7187 5.57144ZM25.7187 10.7143L27.433 10.7143L27.433 12.4286L25.7187 12.4286L25.7187 10.7143ZM25.7187 12.4286L27.433 12.4286L27.433 14.1429L25.7187 14.1429L25.7187 12.4286ZM25.7187 14.1429L27.433 14.1429L27.433 15.8572L25.7187 15.8572L25.7187 14.1429ZM25.7187 15.8572L27.433 15.8572L27.433 17.5714L25.7187 17.5714L25.7187 15.8572ZM25.7187 17.5714L27.433 17.5714L27.433 19.2857L25.7187 19.2857L25.7187 17.5714ZM25.7187 19.2857L27.433 19.2857L27.433 21L25.7187 21L25.7187 19.2857ZM27.433 19.2857L29.1473 19.2857L29.1473 21L27.433 21L27.433 19.2857ZM27.433 17.5714L29.1473 17.5714L29.1473 19.2857L27.433 19.2857L27.433 17.5714ZM27.433 15.8572L29.1473 15.8572L29.1473 17.5714L27.433 17.5714L27.433 15.8572ZM27.433 14.1429L29.1473 14.1429L29.1473 15.8572L27.433 15.8572L27.433 14.1429ZM27.433 12.4286L29.1473 12.4286L29.1473 14.1429L27.433 14.1429L27.433 12.4286ZM27.433 10.7143L29.1473 10.7143L29.1473 12.4286L27.433 12.4286L27.433 10.7143ZM29.1473 12.4286L30.8616 12.4286L30.8616 14.1429L29.1473 14.1429L29.1473 12.4286ZM30.8616 12.4286L32.5759 12.4286L32.5759 14.1429L30.8616 14.1429L30.8616 12.4286ZM30.8616 10.7143L32.5759 10.7143L32.5759 12.4286L30.8616 12.4286L30.8616 10.7143ZM32.5759 10.7143L34.2902 10.7143L34.2902 12.4286L32.5759 12.4286L32.5759 10.7143ZM32.5759 9.00002L34.2902 9.00002L34.2902 10.7143L32.5759 10.7143L32.5759 9.00002ZM32.5759 7.28573L34.2902 7.28573L34.2902 9.00002L32.5759 9.00002L32.5759 7.28573ZM34.2902 7.28573L36.0045 7.28573L36.0045 9.00002L34.2902 9.00002L34.2902 7.28573ZM34.2902 9.00002L36.0045 9.00002L36.0045 10.7143L34.2902 10.7143L34.2902 9.00002ZM30.8616 14.1429L32.5759 14.1429L32.5759 15.8572L30.8616 15.8572L30.8616 14.1429ZM32.5759 14.1429L34.2902 14.1429L34.2902 15.8572L32.5759 15.8572L32.5759 14.1429ZM34.2902 15.8572L36.0045 15.8572L36.0045 17.5714L34.2902 17.5714L34.2902 15.8572ZM32.5759 15.8572L34.2902 15.8572L34.2902 17.5714L32.5759 17.5714L32.5759 15.8572ZM32.5759 17.5714L34.2902 17.5714L34.2902 19.2857L32.5759 19.2857L32.5759 17.5714ZM34.2902 17.5714L36.0045 17.5714L36.0045 19.2857L34.2902 19.2857L34.2902 17.5714ZM34.2902 19.2857L36.0045 19.2857L36.0045 21L34.2902 21L34.2902 19.2857ZM32.5759 19.2857L34.2902 19.2857L34.2902 21L32.5759 21L32.5759 19.2857ZM49.7187 19.2857L48.0045 19.2857L48.0045 17.5714L49.7187 17.5714L49.7187 19.2857ZM49.7187 21L48.0045 21L48.0045 19.2857L49.7187 19.2857L49.7187 21ZM48.0045 21L46.2902 21L46.2902 19.2857L48.0045 19.2857L48.0045 21ZM48.0045 19.2857L46.2902 19.2857L46.2902 17.5714L48.0045 17.5714L48.0045 19.2857ZM48.0045 17.5714L46.2902 17.5714L46.2902 15.8572L48.0045 15.8572L48.0045 17.5714ZM48.0045 15.8572L46.2902 15.8572L46.2902 14.1429L48.0045 14.1429L48.0045 15.8572ZM48.0045 14.1429L46.2902 14.1429L46.2902 12.4286L48.0045 12.4286L48.0045 14.1429ZM49.7187 14.1429L48.0045 14.1429L48.0045 12.4286L49.7187 12.4286L49.7187 14.1429ZM49.7187 15.8572L48.0045 15.8572L48.0045 14.1429L49.7187 14.1429L49.7187 15.8572ZM49.7187 17.5714L48.0045 17.5714L48.0045 15.8572L49.7187 15.8572L49.7187 17.5714ZM49.7187 12.4286L48.0045 12.4286L48.0045 10.7143L49.7187 10.7143L49.7187 12.4286ZM48.0045 12.4286L46.2902 12.4286L46.2902 10.7143L48.0045 10.7143L48.0045 12.4286ZM48.0045 10.7143L46.2902 10.7143L46.2902 9.00002L48.0045 9.00002L48.0045 10.7143ZM48.0045 9.00002L46.2902 9.00002L46.2902 7.28573L48.0045 7.28573L48.0045 9.00002ZM49.7187 9.00002L48.0045 9.00002L48.0045 7.28573L49.7187 7.28573L49.7187 9.00002ZM49.7187 10.7143L48.0045 10.7143L48.0045 9.00002L49.7187 9.00002L49.7187 10.7143ZM41.1473 9.00002L39.433 9.00002L39.433 7.28573L41.1473 7.28573L41.1473 9.00002ZM39.433 9.00002L37.7187 9.00002L37.7187 7.28573L39.433 7.28573L39.433 9.00002ZM39.433 10.7143L37.7187 10.7143L37.7187 9.00002L39.433 9.00002L39.433 10.7143ZM39.433 12.4286L37.7187 12.4286L37.7187 10.7143L39.433 10.7143L39.433 12.4286ZM39.433 14.1429L37.7187 14.1429L37.7187 12.4286L39.433 12.4286L39.433 14.1429ZM39.433 15.8572L37.7187 15.8572L37.7187 14.1429L39.433 14.1429L39.433 15.8572ZM39.433 17.5714L37.7187 17.5714L37.7187 15.8572L39.433 15.8572L39.433 17.5714ZM39.433 19.2857L37.7187 19.2857L37.7187 17.5714L39.433 17.5714L39.433 19.2857ZM41.1473 15.8572L39.433 15.8572L39.433 14.1429L41.1473 14.1429L41.1473 15.8572ZM41.1473 14.1429L39.433 14.1429L39.433 12.4286L41.1473 12.4286L41.1473 14.1429ZM41.1473 12.4286L39.433 12.4286L39.433 10.7143L41.1473 10.7143L41.1473 12.4286ZM41.1473 10.7143L39.433 10.7143L39.433 9.00002L41.1473 9.00002L41.1473 10.7143ZM41.1473 17.5714L39.433 17.5714L39.433 15.8572L41.1473 15.8572L41.1473 17.5714ZM46.2902 19.2857L44.5759 19.2857L44.5759 17.5714L46.2902 17.5714L46.2902 19.2857ZM44.5759 19.2857L42.8616 19.2857L42.8616 17.5714L44.5759 17.5714L44.5759 19.2857ZM42.8616 19.2857L41.1473 19.2857L41.1473 17.5714L42.8616 17.5714L42.8616 19.2857ZM42.8616 21L41.1473 21L41.1473 19.2857L42.8616 19.2857L42.8616 21ZM41.1473 21L39.433 21L39.433 19.2857L41.1473 19.2857L41.1473 21ZM41.1473 19.2857L39.433 19.2857L39.433 17.5714L41.1473 17.5714L41.1473 19.2857ZM44.5759 21L42.8616 21L42.8616 19.2857L44.5759 19.2857L44.5759 21Z" fill="#F4C014"/>
</svg>
