<svg width="52" height="34" viewBox="0 0 52 34" fill="none" xmlns="http://www.w3.org/2000/svg">
<path d="M-2.1481e-06 12.2857L1.71428 12.2857L1.71428 14L-2.44784e-06 14L-2.1481e-06 12.2857ZM1.71428 12.2857L3.42857 12.2857L3.42857 14L1.71428 14L1.71428 12.2857ZM1.71428 14L3.42857 14L3.42857 15.7143L1.71428 15.7143L1.71428 14ZM1.71428 15.7143L3.42857 15.7143L3.42857 17.4286L1.71428 17.4286L1.71428 15.7143ZM1.71428 17.4286L3.42857 17.4286L3.42857 19.1429L1.71428 19.1429L1.71428 17.4286ZM-2.74757e-06 15.7143L1.71428 15.7143L1.71428 17.4286L-3.04731e-06 17.4286L-2.74757e-06 15.7143ZM-2.44784e-06 14L1.71428 14L1.71428 15.7143L-2.74757e-06 15.7143L-2.44784e-06 14ZM-3.04731e-06 17.4286L1.71428 17.4286L1.71428 19.1429L-3.34704e-06 19.1429L-3.04731e-06 17.4286ZM-3.34704e-06 19.1429L1.71428 19.1429L1.71428 20.8572L-3.64678e-06 20.8572L-3.34704e-06 19.1429ZM1.71428 19.1429L3.42857 19.1429L3.42857 20.8572L1.71428 20.8572L1.71428 19.1429ZM1.71428 20.8572L3.42857 20.8572L3.42857 22.5714L1.71428 22.5714L1.71428 20.8572ZM3.42857 20.8572L5.14285 20.8572L5.14285 22.5714L3.42857 22.5714L3.42857 20.8572ZM3.42857 22.5714L5.14285 22.5714L5.14285 24.2857L3.42857 24.2857L3.42857 22.5714ZM5.14285 22.5714L6.85714 22.5714L6.85714 24.2857L5.14285 24.2857L5.14285 22.5714ZM6.85714 22.5714L8.57142 22.5714L8.57142 24.2857L6.85714 24.2857L6.85714 22.5714ZM6.85714 20.8572L8.57142 20.8572L8.57142 22.5714L6.85714 22.5714L6.85714 20.8572ZM6.85714 19.1429L8.57142 19.1429L8.57142 20.8572L6.85714 20.8572L6.85714 19.1429ZM8.57142 19.1429L10.2857 19.1429L10.2857 20.8572L8.57142 20.8572L8.57142 19.1429ZM8.57142 20.8572L10.2857 20.8572L10.2857 22.5714L8.57142 22.5714L8.57142 20.8572ZM8.57143 17.4286L10.2857 17.4286L10.2857 19.1429L8.57142 19.1429L8.57143 17.4286ZM6.85714 17.4286L8.57143 17.4286L8.57142 19.1429L6.85714 19.1429L6.85714 17.4286ZM6.85714 12.2857L8.57143 12.2857L8.57143 14L6.85714 14L6.85714 12.2857ZM8.57143 12.2857L10.2857 12.2857L10.2857 14L8.57143 14L8.57143 12.2857ZM8.57143 14L10.2857 14L10.2857 15.7143L8.57143 15.7143L8.57143 14ZM8.57143 15.7143L10.2857 15.7143L10.2857 17.4286L8.57143 17.4286L8.57143 15.7143ZM6.85714 14L8.57143 14L8.57143 15.7143L6.85714 15.7143L6.85714 14ZM6.85714 15.7143L8.57143 15.7143L8.57143 17.4286L6.85714 17.4286L6.85714 15.7143ZM5.14285 24.2857L6.85714 24.2857L6.85714 26L5.14285 26L5.14285 24.2857ZM3.42857 24.2857L5.14285 24.2857L5.14285 26L3.42857 26L3.42857 24.2857ZM3.42857 26L5.14285 26L5.14285 27.7143L3.42857 27.7143L3.42857 26ZM1.71428 26L3.42857 26L3.42857 27.7143L1.71428 27.7143L1.71428 26ZM1.71428 24.2857L3.42857 24.2857L3.42857 26L1.71428 26L1.71428 24.2857ZM1.71428 27.7143L3.42857 27.7143L3.42857 29.4286L1.71428 29.4286L1.71428 27.7143ZM-4.84572e-06 27.7143L1.71428 27.7143L1.71428 29.4286L-5.14545e-06 29.4286L-4.84572e-06 27.7143ZM-4.54598e-06 26L1.71428 26L1.71428 27.7143L-4.84572e-06 27.7143L-4.54598e-06 26ZM5.14285 20.8572L6.85714 20.8572L6.85714 22.5714L5.14285 22.5714L5.14285 20.8572ZM3.42857 19.1429L5.14285 19.1429L5.14285 20.8572L3.42857 20.8572L3.42857 19.1429ZM24 24.2857L22.2857 24.2857L22.2857 22.5714L24 22.5714L24 24.2857ZM24 26L22.2857 26L22.2857 24.2857L24 24.2857L24 26ZM22.2857 26L20.5714 26L20.5714 24.2857L22.2857 24.2857L22.2857 26ZM22.2857 24.2857L20.5714 24.2857L20.5714 22.5714L22.2857 22.5714L22.2857 24.2857ZM22.2857 22.5714L20.5714 22.5714L20.5714 20.8572L22.2857 20.8572L22.2857 22.5714ZM22.2857 20.8572L20.5714 20.8572L20.5714 19.1429L22.2857 19.1429L22.2857 20.8572ZM22.2857 19.1429L20.5714 19.1429L20.5714 17.4286L22.2857 17.4286L22.2857 19.1429ZM24 19.1429L22.2857 19.1429L22.2857 17.4286L24 17.4286L24 19.1429ZM24 20.8572L22.2857 20.8572L22.2857 19.1429L24 19.1429L24 20.8572ZM24 22.5714L22.2857 22.5714L22.2857 20.8572L24 20.8572L24 22.5714ZM24 17.4286L22.2857 17.4286L22.2857 15.7143L24 15.7143L24 17.4286ZM22.2857 17.4286L20.5714 17.4286L20.5714 15.7143L22.2857 15.7143L22.2857 17.4286ZM22.2857 15.7143L20.5714 15.7143L20.5714 14L22.2857 14L22.2857 15.7143ZM22.2857 14L20.5714 14L20.5714 12.2857L22.2857 12.2857L22.2857 14ZM24 14L22.2857 14L22.2857 12.2857L24 12.2857L24 14ZM24 15.7143L22.2857 15.7143L22.2857 14L24 14L24 15.7143ZM15.4286 14L13.7143 14L13.7143 12.2857L15.4286 12.2857L15.4286 14ZM13.7143 14L12 14L12 12.2857L13.7143 12.2857L13.7143 14ZM13.7143 15.7143L12 15.7143L12 14L13.7143 14L13.7143 15.7143ZM13.7143 17.4286L12 17.4286L12 15.7143L13.7143 15.7143L13.7143 17.4286ZM13.7143 19.1429L12 19.1429L12 17.4286L13.7143 17.4286L13.7143 19.1429ZM13.7143 20.8572L12 20.8572L12 19.1429L13.7143 19.1429L13.7143 20.8572ZM13.7143 22.5714L12 22.5714L12 20.8572L13.7143 20.8572L13.7143 22.5714ZM13.7143 24.2857L12 24.2857L12 22.5714L13.7143 22.5714L13.7143 24.2857ZM15.4286 20.8572L13.7143 20.8572L13.7143 19.1429L15.4286 19.1429L15.4286 20.8572ZM15.4286 19.1429L13.7143 19.1429L13.7143 17.4286L15.4286 17.4286L15.4286 19.1429ZM15.4286 17.4286L13.7143 17.4286L13.7143 15.7143L15.4286 15.7143L15.4286 17.4286ZM15.4286 15.7143L13.7143 15.7143L13.7143 14L15.4286 14L15.4286 15.7143ZM15.4286 22.5714L13.7143 22.5714L13.7143 20.8572L15.4286 20.8572L15.4286 22.5714ZM20.5714 24.2857L18.8571 24.2857L18.8571 22.5714L20.5714 22.5714L20.5714 24.2857ZM18.8571 24.2857L17.1429 24.2857L17.1429 22.5714L18.8571 22.5714L18.8571 24.2857ZM17.1429 24.2857L15.4286 24.2857L15.4286 22.5714L17.1429 22.5714L17.1429 24.2857ZM17.1429 26L15.4286 26L15.4286 24.2857L17.1429 24.2857L17.1429 26ZM15.4286 26L13.7143 26L13.7143 24.2857L15.4286 24.2857L15.4286 26ZM15.4286 24.2857L13.7143 24.2857L13.7143 22.5714L15.4286 22.5714L15.4286 24.2857ZM18.8571 26L17.1429 26L17.1429 24.2857L18.8571 24.2857L18.8571 26ZM25.7187 8.85716L27.433 8.85716L27.433 10.5714L25.7187 10.5714L25.7187 8.85716ZM27.433 8.85716L29.1473 8.85716L29.1473 10.5714L27.433 10.5714L27.433 8.85716ZM27.433 10.5714L29.1473 10.5714L29.1473 12.2857L27.433 12.2857L27.433 10.5714ZM27.433 12.2857L29.1473 12.2857L29.1473 14L27.433 14L27.433 12.2857ZM27.433 14L29.1473 14L29.1473 15.7143L27.433 15.7143L27.433 14ZM25.7187 14L27.433 14L27.433 15.7143L25.7187 15.7143L25.7187 14ZM25.7187 12.2857L27.433 12.2857L27.433 14L25.7187 14L25.7187 12.2857ZM25.7187 10.5714L27.433 10.5714L27.433 12.2857L25.7187 12.2857L25.7187 10.5714ZM25.7187 15.7143L27.433 15.7143L27.433 17.4286L25.7187 17.4286L25.7187 15.7143ZM25.7187 17.4286L27.433 17.4286L27.433 19.1429L25.7187 19.1429L25.7187 17.4286ZM25.7187 19.1429L27.433 19.1429L27.433 20.8572L25.7187 20.8572L25.7187 19.1429ZM25.7187 20.8572L27.433 20.8572L27.433 22.5714L25.7187 22.5714L25.7187 20.8572ZM25.7187 22.5714L27.433 22.5714L27.433 24.2857L25.7187 24.2857L25.7187 22.5714ZM25.7187 24.2857L27.433 24.2857L27.433 26L25.7187 26L25.7187 24.2857ZM27.433 24.2857L29.1473 24.2857L29.1473 26L27.433 26L27.433 24.2857ZM27.433 22.5714L29.1473 22.5714L29.1473 24.2857L27.433 24.2857L27.433 22.5714ZM27.433 20.8572L29.1473 20.8572L29.1473 22.5714L27.433 22.5714L27.433 20.8572ZM27.433 19.1429L29.1473 19.1429L29.1473 20.8572L27.433 20.8572L27.433 19.1429ZM27.433 17.4286L29.1473 17.4286L29.1473 19.1429L27.433 19.1429L27.433 17.4286ZM27.433 15.7143L29.1473 15.7143L29.1473 17.4286L27.433 17.4286L27.433 15.7143ZM29.1473 17.4286L30.8616 17.4286L30.8616 19.1429L29.1473 19.1429L29.1473 17.4286ZM30.8616 17.4286L32.5759 17.4286L32.5759 19.1429L30.8616 19.1429L30.8616 17.4286ZM30.8616 15.7143L32.5759 15.7143L32.5759 17.4286L30.8616 17.4286L30.8616 15.7143ZM32.5759 15.7143L34.2902 15.7143L34.2902 17.4286L32.5759 17.4286L32.5759 15.7143ZM32.5759 14L34.2902 14L34.2902 15.7143L32.5759 15.7143L32.5759 14ZM32.5759 12.2857L34.2902 12.2857L34.2902 14L32.5759 14L32.5759 12.2857ZM34.2902 12.2857L36.0045 12.2857L36.0045 14L34.2902 14L34.2902 12.2857ZM34.2902 14L36.0045 14L36.0045 15.7143L34.2902 15.7143L34.2902 14ZM30.8616 19.1429L32.5759 19.1429L32.5759 20.8572L30.8616 20.8572L30.8616 19.1429ZM32.5759 19.1429L34.2902 19.1429L34.2902 20.8572L32.5759 20.8572L32.5759 19.1429ZM34.2902 20.8572L36.0045 20.8572L36.0045 22.5714L34.2902 22.5714L34.2902 20.8572ZM32.5759 20.8572L34.2902 20.8572L34.2902 22.5714L32.5759 22.5714L32.5759 20.8572ZM32.5759 22.5714L34.2902 22.5714L34.2902 24.2857L32.5759 24.2857L32.5759 22.5714ZM34.2902 22.5714L36.0045 22.5714L36.0045 24.2857L34.2902 24.2857L34.2902 22.5714ZM34.2902 24.2857L36.0045 24.2857L36.0045 26L34.2902 26L34.2902 24.2857ZM32.5759 24.2857L34.2902 24.2857L34.2902 26L32.5759 26L32.5759 24.2857ZM49.7187 24.2857L48.0045 24.2857L48.0045 22.5714L49.7187 22.5714L49.7187 24.2857ZM49.7187 26L48.0045 26L48.0045 24.2857L49.7187 24.2857L49.7187 26ZM48.0045 26L46.2902 26L46.2902 24.2857L48.0045 24.2857L48.0045 26ZM48.0045 24.2857L46.2902 24.2857L46.2902 22.5714L48.0045 22.5714L48.0045 24.2857ZM48.0045 22.5714L46.2902 22.5714L46.2902 20.8572L48.0045 20.8572L48.0045 22.5714ZM48.0045 20.8572L46.2902 20.8572L46.2902 19.1429L48.0045 19.1429L48.0045 20.8572ZM48.0045 19.1429L46.2902 19.1429L46.2902 17.4286L48.0045 17.4286L48.0045 19.1429ZM49.7187 19.1429L48.0045 19.1429L48.0045 17.4286L49.7187 17.4286L49.7187 19.1429ZM49.7187 20.8572L48.0045 20.8572L48.0045 19.1429L49.7187 19.1429L49.7187 20.8572ZM49.7187 22.5714L48.0045 22.5714L48.0045 20.8572L49.7187 20.8572L49.7187 22.5714ZM49.7187 17.4286L48.0045 17.4286L48.0045 15.7143L49.7187 15.7143L49.7187 17.4286ZM48.0045 17.4286L46.2902 17.4286L46.2902 15.7143L48.0045 15.7143L48.0045 17.4286ZM48.0045 15.7143L46.2902 15.7143L46.2902 14L48.0045 14L48.0045 15.7143ZM48.0045 14L46.2902 14L46.2902 12.2857L48.0045 12.2857L48.0045 14ZM49.7187 14L48.0045 14L48.0045 12.2857L49.7187 12.2857L49.7187 14ZM49.7187 15.7143L48.0045 15.7143L48.0045 14L49.7187 14L49.7187 15.7143ZM41.1473 14L39.433 14L39.433 12.2857L41.1473 12.2857L41.1473 14ZM39.433 14L37.7187 14L37.7187 12.2857L39.433 12.2857L39.433 14ZM39.433 15.7143L37.7187 15.7143L37.7187 14L39.433 14L39.433 15.7143ZM39.433 17.4286L37.7187 17.4286L37.7187 15.7143L39.433 15.7143L39.433 17.4286ZM39.433 19.1429L37.7187 19.1429L37.7187 17.4286L39.433 17.4286L39.433 19.1429ZM39.433 20.8572L37.7187 20.8572L37.7187 19.1429L39.433 19.1429L39.433 20.8572ZM39.433 22.5714L37.7187 22.5714L37.7187 20.8572L39.433 20.8572L39.433 22.5714ZM39.433 24.2857L37.7187 24.2857L37.7187 22.5714L39.433 22.5714L39.433 24.2857ZM41.1473 20.8572L39.433 20.8572L39.433 19.1429L41.1473 19.1429L41.1473 20.8572ZM41.1473 19.1429L39.433 19.1429L39.433 17.4286L41.1473 17.4286L41.1473 19.1429ZM41.1473 17.4286L39.433 17.4286L39.433 15.7143L41.1473 15.7143L41.1473 17.4286ZM41.1473 15.7143L39.433 15.7143L39.433 14L41.1473 14L41.1473 15.7143ZM41.1473 22.5714L39.433 22.5714L39.433 20.8572L41.1473 20.8572L41.1473 22.5714ZM46.2902 24.2857L44.5759 24.2857L44.5759 22.5714L46.2902 22.5714L46.2902 24.2857ZM44.5759 24.2857L42.8616 24.2857L42.8616 22.5714L44.5759 22.5714L44.5759 24.2857ZM42.8616 24.2857L41.1473 24.2857L41.1473 22.5714L42.8616 22.5714L42.8616 24.2857ZM42.8616 26L41.1473 26L41.1473 24.2857L42.8616 24.2857L42.8616 26ZM41.1473 26L39.433 26L39.433 24.2857L41.1473 24.2857L41.1473 26ZM41.1473 24.2857L39.433 24.2857L39.433 22.5714L41.1473 22.5714L41.1473 24.2857ZM44.5759 26L42.8616 26L42.8616 24.2857L44.5759 24.2857L44.5759 26Z" fill="#F4C014"/>
</svg>
